<svg fill="currentColor" xmlns="http://www.w3.org/2000/svg" viewBox="0 0 1163 807">
    <path d="M831.3 2.8c-5.5 3.6-8.3 7-8.3 9.8 0 1.3 1.6 5.8 3.5 10.2 5 11.5 9.1 24.4 11.9 37.3 4.2 19.5 4.8 28.5 4.4 59-.4 25.2-.8 30.1-3.2 43.7-6.7 37.6-18.2 74-35.1 111.2-9.4 20.6-18.3 36.6-34.4 61.7-3.9 6.2-7.6 12.5-8.1 13.9-1 2.5-1.2 2.5-3.3 1.1-3.2-2.1-3.2-4.3-.3-8.2 2.2-2.8 2.6-4.4 2.6-10.1 0-4.9.5-7.2 1.7-8.6 1-1.2 1.8-4.1 2.1-7.7.4-5.6.6-5.9 4.1-7.5 6.9-3.3 10.9-6.7 12.5-10.7 2.3-5.6 2.1-13.4-.4-16.9-1.3-1.8-3.4-9.7-6-22.1-4.6-22-6.4-26.4-14.8-35.7l-5.7-6.4 9.1-9.1c19.4-19.7 26.3-39.5 23.5-67.2-2.9-28.7-15.2-43.7-41.6-50.7-9.9-2.7-31.5-3.4-42.1-1.5-10.3 1.9-23.3 7.2-32.3 13.1-9.9 6.6-22.2 19.9-26.6 28.9-10.2 20.9-10.4 47-.5 66.7 1.7 3.4 3 6.3 2.8 6.5-.2.1-3.2 1.7-6.8 3.5-3.6 1.8-9 5-12 7-7.6 5.2-20.4 18.2-24.5 24.9-6.9 11.5-11.4 26.4-13.1 43.4-.4 4.5-1.3 7.6-2.7 9.4-1.6 2-2.2 4.8-2.8 12.7-.4 5.6-.8 10.4-.8 10.7-.1.4-2.4.9-5.1 1.1-3.5.4-5.9 1.3-7.7 2.9-6.6 6.2-10.7 16.8-10.1 26.4.5 8.8 4.2 14.5 12.6 19.6 3.5 2.1 6.8 3.9 7.4 4.1.5.2 1.4 2.6 1.9 5.3.5 2.7 1.9 6 3.2 7.3 2 2.1 2.2 3.6 2.5 13.8.3 8 0 11.9-.8 12.9-1.9 2.3-9.9 1.8-24.9-1.6-61.2-14-111.5-50-149.8-107.4-32-47.9-52.1-99.9-71.3-184.5-3.3-14.6-6.5-27.6-7-29-1.2-2.9-8.2-7.8-18.3-12.8-5.1-2.5-7.8-3.2-11-3-3.7.3-4.2.6-4.5 3-.2 1.9.4 3.4 2.3 5 3.2 2.8 6.5 8.8 6.5 12.1 0 3.5-5.1 10.7-11.1 15.8-3 2.5-13.3 10.5-22.9 17.6-28.7 21.5-61 51.4-86.5 80.3-6 6.8-12.8 14.2-15 16.5-2.1 2.2-3.8 4.3-3.8 4.6.1.3-3.2 4.7-7.3 9.8-10.3 12.8-24.4 32.7-36.1 51.1C53.8 400.8 15 534.1 4 709.5c-.5 9.3-1.7 27.4-2.5 40.1-1.7 27-1.8 31.4-.6 31.4.5 0 3-2.9 5.5-6.3 8.5-12 21.3-21.6 34.6-25.9 9.2-2.9 27.5-3.6 39.5-1.3 33.2 6.1 72.3 29.2 91.2 53.7 2.5 3.3 4.9 5.6 5.3 5.1.4-.4 2.7-6.2 5-12.8 8.2-23.1 17-39.2 30-55.3 15.4-19.1 34.4-32.1 54.6-37.2 9.6-2.5 23.6-2.6 31.9-.4 11.1 3 10.3 3.2 11-2.2 2.8-21.8 10.9-39.7 25.5-56.6 14.8-17.1 37.8-32.3 57.5-38 10.7-3 28.6-3.2 35.8-.4 2.6 1 5 1.7 5.2 1.4.3-.2-.5-3.6-1.7-7.4-1.7-5.8-2.1-9.6-2.2-23.4-.1-18.5 1.1-26.3 7-45.9 7-23.1 12.7-33.2 26.9-48 17-17.7 50.3-42.7 53.1-39.8 1.1 1-.3 2.3-19.9 18.1-20.2 16.2-33.2 28.8-36.6 35.3l-1.9 3.9 5.3 10.2c9.1 17.4 21.7 33.4 32.7 41.7 12.1 9.1 29.8 16.7 43.6 18.6 10.1 1.5 29.6.5 39.7-2 16.6-4.1 37.6-13.3 53.5-23.5l8.5-5.5.3 3.7c.4 4.7 2 6.4 9.1 9.6 8.3 3.7 17.2 5.7 23.8 5.4l5.8-.3.5-8.9c.5-8.1.8-9 3.3-10.8 1.5-1.1 2.7-2.6 2.7-3.5 0-1.6-11.4-13.3-13-13.3-.5 0-1.7 1.1-2.6 2.6-1.4 2.1-2.3 2.5-5.7 2.2-2.2-.2-4.2-.8-4.4-1.4-.2-.6 3.6-5.3 8.5-10.5 23.5-25 40.9-51 54.4-81.5l3.6-8.2 7.4-3.5c16.7-7.9 36.2-11.6 50.2-9.6 7.7 1 10.7 2.1 16.7 6 6.1 3.8 10.2 9.9 13.5 19.5 2.5 7.6 2.6 8.5 2.1 23.9-.3 9.4-1.2 19.4-2.2 24.3-1 4.6-1.5 8.6-1.1 8.9.3.3 3.2-1.3 6.3-3.5 8.7-6.3 17.6-11.1 25.6-14 9.8-3.4 24.4-3.7 32.8-.5 7.1 2.6 16.2 8.8 21.4 14.4 11.1 12 20.2 31 22.5 46.7 1.3 9.1 1.3 28.9-.1 35.2-.6 2.8-.8 5.4-.5 5.8.4.3 3.2-1.9 6.4-4.9 16.6-16.2 31.5-23.6 49.2-24.6 14.6-.8 24.6 2.9 32.9 12.3 5.7 6.5 8.1 12.1 10.5 24.5 1.1 6.1 2.5 10.8 3.1 10.6.5-.2 3-4.1 5.5-8.8 6.3-12 18.2-23.7 30.5-30 13.6-7 18.4-8.4 30-8.4 8.9 0 10.7.3 16.2 2.9 11.3 5.2 17.9 14.8 20.9 30.2 1.6 8.8 1.6 13.6-.2 38.4l-.5 7.5 3.6-7.5c7.5-15.5 17.8-47.1 22.9-70.2 3.3-15 7.2-41.2 8.5-57.1 2.3-26.8 1.1-70.8-2.5-99.2-7.8-61.5-29.6-124.5-61.7-178.2-17.7-29.7-34.8-51.5-60.6-77.4C991.3 90 941.1 60 877 40c-15.5-4.8-21.5-7.6-26.9-12.5-4.5-4.1-8.8-13-10.3-21.5-1.2-7-2.2-7.4-8.5-3.2zm10.9 28.4c4.2 8.8 9.6 26.6 12.2 39.8 6.6 33.4 6.2 73.3-1 115.5-8 46.2-26.5 94.6-53.3 139-7.9 13.1-17.6 26.5-19.1 26.5-2.1 0-.8-4.9 2.7-10.6 12.8-20.8 17.4-28.9 25.7-45.4 22-44.2 35.7-88.5 42.2-136.5 2.8-20.3 2.5-59.4-.5-78.5-2.7-17.8-5.9-31.3-10.4-44.8-2.5-7.2-3.1-10.2-2.2-10.2.7 0 2.4 2.4 3.7 5.2zm18.9 21.6c6.7 14.4 14.6 45.1 18.5 72.2 2.1 15.1 3 68.3 1.5 94.6-2.2 38.2-9.1 83.3-21.7 140.9-8.3 38-17.2 73.2-20 79.2-2.4 5-4.7 7.3-6 6-.3-.3 1.3-9.4 3.6-20.3 29.7-142.8 37-193.5 37-257.4 0-36.5-1.2-53.2-5-72.5-3-14.7-8.8-36.4-11.6-43.1-1.8-4.2-1.8-5.5 0-4.8.8.3 2.4 2.7 3.7 5.2zm33 9.9c13.2 7.3 28.6 21 43.1 38.3 9.7 11.5 24.4 33.4 32.9 48.9 31.8 58.1 56.5 142.8 67.4 231 3.8 30.6 4.6 41.5 5.1 75.1.8 48.7-1 76-5.1 76-1.3 0-1.5-5.7-1.5-40.3 0-35.8-.3-43.1-2.5-65.3-11.4-113.3-39.2-214.9-77.7-284.4-18.5-33.4-38.6-56.9-62.4-72.9-6-4.1-11.3-7.8-11.9-8.4-1.7-1.7 9 0 12.6 2zM888 82.8c29.8 44 42.4 93.8 49.6 196.7 1.4 20.1 1.7 41.5 1.8 130.5l.1 106.5-2.3 7.2c-1.2 3.9-3.1 8.2-4.1 9.5-1.9 2.2-2 2.3-2.8.3-1.1-2.6-1-101.2.1-173 .9-59.4.2-89.5-3-123.5-6.5-70.6-21-119.8-46.1-156.8-6.2-9.2-7.3-12.8-3-9.9 1.2.8 5.6 6.4 9.7 12.5zm63.3-4.2c14 5.6 39.2 25.7 65.7 52.3 16.9 17 26.4 27.8 39 44.6 49.3 65.8 79.1 139.1 92.1 227 3 20.7 3.8 70.9 1.4 92.8-2 18.7-6.3 40.8-9.6 49.2-2.3 5.8-2.4 5.9-2.7 2.7-.2-1.8.6-9 1.7-16 4.1-26.2 4.6-33.3 4.6-65.2 0-39.2-2.1-59.3-10-96.8-13.9-66-45.9-137.2-85.8-191.2-17.7-23.8-40.1-48.4-61.2-66.9-18.4-16.1-23.2-19.8-44-33l-5-3.2 4 .7c2.2.4 6.6 1.7 9.8 3zM327.9 105c3.9 54.8 18.1 108.3 42.1 157.8 21.3 43.7 42.6 73.1 76.9 105.6 24.1 22.8 51.3 39.6 79.1 49 6.3 2.1 11.9 4.2 12.3 4.6.4.4.5 2.6.1 4.9-.7 4.1-.8 4.2-3.8 3.5-5.1-1.1-25.7-9.3-32.6-13.1-8.7-4.8-24.4-14.9-30-19.2-43.9-34.5-80.9-82.1-108.9-140.1-24.1-50-37.2-100-38.8-147.1-1-30.6 1.6-34.8 3.6-5.9zm412-4.5c9.9 2.4 18.5 7 25 13.3 10.1 9.9 13.7 20.3 12.8 36.2-.8 12.5-2.7 19.2-9.2 32.5-6 12.5-15.1 23.4-22.8 27.5-7.1 3.8-7.7 2.8-7.7-14.4 0-9.5-.5-16.1-1.5-20-2.1-8.1-12-28.1-16.3-32.8-6.6-7.3-9.4-4.4-10.3 11.1l-.6 10.3-6.9 13.5c-4.4 8.6-7.6 13.8-8.9 14.3-1.1.4-5.1 1-9 1.4-3.8.4-11.2 1.6-16.3 2.7-5.2 1.1-10 1.8-10.7 1.5-2.6-1-6.6-8.8-8.1-15.4-1.8-8.8-1.8-24.3.1-31.7 2.3-9 8.7-21.3 14.7-27.9 9.2-10.3 25.7-19.5 41.3-23 8.4-1.9 24.7-1.5 34.4.9zm-430.4 26.2c-2.4 5.8-6.4 11.8-18.2 27.4-67 88.5-113.6 205.3-131.2 328.4-6.3 44.5-6.6 49-6.6 109.5.1 51 .3 57.1 2.3 74.5 4 33.7 8.5 60.1 16.7 97.8 1.4 6.4 2.5 14.3 2.4 17.5l-.1 5.7-2.4-5.3c-5.1-11.1-13.8-42.7-18.4-66.4-9.1-47.6-12.9-109-10-161.8 6.8-122 38-233 92.5-329 10.5-18.5 33.9-53.4 48-71.5 10.7-13.7 25-30.5 26.1-30.5.2 0-.3 1.7-1.1 3.7zm-22.7 2.2c-.1.6-11.1 12.6-24.3 26.8-34.8 37.3-38.2 41.1-59 65.8-65.7 78.2-110.5 161.4-141 262C42.6 549.2 30.4 616 23 700c-3.1 34.1-4.2 40.1-8.5 47-3.9 6.1-4.7 6-4-.7 11.1-112.7 24.4-189.8 45-261.8 14.7-51 30-90.4 52-134 32.5-64.5 75.4-122.4 134-181 28.9-28.9 46.9-45.1 45.3-40.6zm23 30.3c-.3 3.9-2.3 9.1-7.2 19.3-26.3 54.3-40.8 108.9-48.2 180.5-2.1 20.9-3.1 94.7-1.5 117 5 72.1 18 133.2 40.2 190.1 7.1 18.3 8.9 25.1 7 26.4-4.9 2.9-25.2-40-35.5-75-26.3-89.3-30-212.3-9.5-317.5 9-46.2 23-88.5 39.6-120 6.1-11.8 14.5-26 15.1-26 .3 0 .2 2.4 0 5.2zM726 173.4c4.4 13.2 3.3 30.5-2.6 43-2.9 6.1-7.6 11.1-9.7 10.3-2.1-.8-9.6-15.9-10.6-21.2-1.2-6.6.2-11.3 6.3-21.6 3.4-5.6 6.1-11.6 7.3-16l1.8-7.1 2.7 3.3c1.5 1.8 3.7 6 4.8 9.3zm-34 34.4c0 4.7.4 6.3 2.1 7.8 2.6 2.4 4.9 6.7 4.9 9.3 0 1.9-.4 2-4.7 1.4-6.6-.8-14.3-3.8-19.2-7.3-4.3-3.1-10.1-10.4-10.1-12.6 0-1.5 13-4.2 21.3-4.3l5.7-.1v5.8zm-383.6 8.9c.3 1.6 1 11.8 1.6 22.8 1.6 31.5 4 50.6 10.1 80.5 14.6 70.8 39.3 139.1 75.7 209.3 8.6 16.5 10.7 21.5 12.8 30.3 1.4 5.7 2.4 12 2.2 14-.3 3.4-.4 3.4-2.5 1.9-3-2.1-10.4-14.7-21.7-37-39.3-77-67.1-163.4-78.7-244.5-1.7-12.3-2.3-21.7-2.6-45.3-.3-16.4-.2-30.9.1-32.2.8-3.3 2.3-3.2 3 .2zM747 229.5c3.3 1.7 4.2 3.9 4.2 10.5-.1 6.8-4.1 14-12.4 22.7-10.1 10.4-9.8 10.8 10.2 13.8 13 1.9 21.8 5.3 25.6 9.8 4.6 5.4.8 10.6-4 5.4-10.8-11.7-66.1-12.9-109.1-2.3-16 3.9-34.7 11-52.3 19.7-13.3 6.6-16.5 7.9-17.7 6.9-3.5-2.9-2-4.2 14.5-12.7 33.7-17.2 68.4-26.3 111.1-28.9 11.9-.7 12.8-1.2 11-5.6-3.4-8.5-4-10.6-4.1-14.7 0-2.4.5-6.1 1.1-8.1 2.3-7.5 12.2-18 17.1-18 1 0 3.2.7 4.8 1.5zm-6.5 64.5c1.2 1.9-6.7 23.4-13.3 36.7-5.9 11.7-6.7 13.9-6.7 19v5.8l11.5.1c17.7.3 25.5 2.7 32.3 10.3 5 5.6 4.9 8.7-.3 13.4-10.3 9.4-31.4 15.1-47.4 12.8-11.4-1.6-17.7-7.3-19-17.1-.4-2.6-1.3-5.3-2.1-6-2.2-1.8-1.8-3.5 1.1-4.9 2.3-1 2.5-1.6 2-4.9-1.6-9.7-1.8-13.2-.9-13.2.6 0 1.3 1.3 1.6 3 .8 3.5 4.8 6.4 7.7 5.5 3.1-1 6-4.6 6-7.4 0-3.3-2.3-6.6-8.3-12.1-2.7-2.4-6.2-6.1-7.9-8.3-2.6-3.3-3-4.2-2-5.8.7-1 1.2-2.7 1.2-3.8 0-2.3-7.5-11.7-12.2-15.3-3.1-2.4-3.7-2.5-9.3-1.6-9 1.4-13.1 6.8-5.2 6.8 1.8 0 4.3.7 5.6 1.6 2.4 1.7 7.1 10.6 7.1 13.6 0 .9 1.5 2.8 3.3 4.2 6.3 5 6.7 5.5 6.7 9.3 0 2.1-.7 4.7-1.5 5.7-1.9 2.5-1.9 6.7 0 11.3 2 4.8 2 5-2.1 5.6-4.8.8-9.2-1.1-14.4-6.3-5.4-5.4-8.6-12.5-10-22-1.6-11.3-1.8-12-3.9-12-3 0-6.9 5.5-7.7 10.6-1.3 9.1 3.2 20.8 11.4 28.9 4.3 4.3 11.7 8.5 15 8.5 3.1 0 5.2 1.1 5.2 2.7 0 .7 1.6 3 3.5 5 2.7 2.8 3.5 4.4 3.5 7.2 0 6.6-.7 6.8-11.8 3.2-16.8-5.4-27.6-13.4-34.7-25.8-5.3-9.2-5.8-9.5-15.2-8.8-9.9.9-11-.2-7.5-6.9 3.2-6 7.2-18.5 7.2-22 0-1.7-.7-4-1.5-5-2.3-3-1.8-4 2.8-6.3 14.7-7.1 67.1-16 95.4-16.2 8.5-.1 14.4.3 14.8.9zm12.2 18.5c-.3 3.3-1.2 8-2.2 10.5-.9 2.5-2 9-2.3 14.5-.7 9.3-.8 10-2.7 9.7-1.1-.2-2.2-.5-2.3-.7-.2-.2-.5-5.5-.6-11.7-.2-10.5-.1-11.7 2.5-16.8 1.5-3 3-7.1 3.4-9 1-4.8 1.4-5.3 3.2-3.8 1.2 1 1.4 2.6 1 7.3zm-159.5 14.2c1.1 1 2.9 3.1 4 4.6l2 2.8-2.3 2.5-2.3 2.4 3.2 3c1.8 1.6 3.2 3.6 3.2 4.4 0 1.8-2.7 4.6-4.5 4.6-2.6 0-2.6 2.1-.1 6.6 1.7 3 2.6 6.2 2.6 9 0 3.8-.4 4.6-2.6 5.6-3.7 1.7-4.6-.3-3.9-8.5.5-6 .2-7.3-2-11.1-3.4-5.8-3.3-8.1.5-9.5 2.5-.8 3-1.5 3-4.3 0-1.8-.4-3.8-.8-4.4-1.3-2-5-3.4-9-3.4-3.3 0-4.5.6-6.6 3.1-3.6 4.3-3.5 9.8.4 16.4 1.6 2.7 3 5.3 3 5.7 0 1.8-3 .6-4.9-1.8-4.3-5.4-5.7-17.5-2.7-23.1 3.9-7.7 13.9-10 19.8-4.6zm46.2 40.3c-.1 5-4.7 17.6-8 21.7-3.1 4-4.7 2.3-4.2-4.6 1.3-14.6 12.5-30.4 12.2-17.1zm14 17.2c-.9 10.9-4.1 28.9-5.3 30.1-1.1 1.1-4.6-.8-8.8-4.6-3.3-3-2.9-7.4 1.7-19.1 4.7-11.6 6.2-13.6 10.2-13.6h2.8l-.6 7.2zm-39.3.5c3.5 18.8 16.2 35 32.7 41.4 4.6 1.8 7.8 2.3 16.4 2.3 9.2.1 10.8.3 10.8 1.7 0 1.2-1.4 1.8-5.7 2.2-7.8.8-26.8-.8-31.9-2.6-10.1-3.7-17.9-11.2-21.4-20.5-2.2-5.9-4.2-22.7-3.3-27.4.7-3.7 1.3-3 2.4 2.9zm57.1 5.5c2.4 1.2 2.9 5.4 2.6 19.3l-.3 12-3.5.3c-5.5.4-11.3-2-12.1-5.1-1.5-5.5 2.7-27 5.4-28 1.4-.6 5.4.2 7.9 1.5zM690 394c1.9 0 2.6 4 3.2 18l.3 6.4-4.1 1.2c-6.5 1.9-6.9 1.1-6.7-11.5.1-11.3 1.3-15.7 4-14.7.8.3 2.3.6 3.3.6zm24.8 5.5c3.8 1.6 3.9 2.3 1.2 7.5-2.2 4.4-7.7 9-10.7 9-1.8 0-2.1-.9-2.6-6.8-.4-3.7-.7-8-.7-9.6 0-2.8 0-2.8 4.8-2.1 2.6.4 6.2 1.3 8 2zM601.1 424c2 19.6 10 44.4 19.4 60 5.3 8.7 6.2 11.5 4.5 13.5-2.3 2.7-5.6 1.7-9.5-2.8-5.2-6-13.1-22.6-16-33.7-4.1-15.6-5.4-42.8-2.2-46.8 1.8-2.3 2.8.2 3.8 9.8zm109 5.1c-11.1 18.7-29.8 42.5-45.3 57.5-36.3 35.3-79.3 57.5-116.8 60.3-19.1 1.4-31.9-.3-44.8-6.1-6.2-2.8-3.6-3.4 6-1.4 32.7 6.7 64.9 3.1 92.1-10.5 32-16 55.5-37.6 88.6-81.9 15.3-20.3 18.9-24.4 23.1-26.1.8-.4 1.6-.5 1.8-.4.2.2-1.9 4-4.7 8.6zm-176.7 22c-.1 1.9-1.3 6.5-2.7 10.4-2.4 6.3-2.7 8.4-2.7 20.5 0 7.4.7 18.9 1.5 25.5 2 16.8 1.9 21.2-.3 22.4-3.4 1.8-7.5-.1-9.7-4.4-1.8-3.5-2-6-2-21 0-14.2.4-18.8 2.3-27.5 2.5-10.9 7-23.8 9.8-27.8 2.2-3.1 3.9-2.2 3.8 1.9z"/>
    <path d="M639.6 555.7c-2.4 13.4-2.2 19.5 1 23.3 4.3 5.1 9.2 7 18.1 7 9.5 0 13.1-1.8 16.1-8.2 1.2-2.3 2.4-7.5 2.8-11.4l.7-7.1-7.1-.6c-9.7-.9-19.3-4.1-24.7-8.2-2.5-1.9-4.7-3.5-4.9-3.5-.2 0-1.1 3.9-2 8.7z"/>
</svg>
